PathFileType	4	(X/Y/Z)	D:\TRACE\v60_Jaco2_6-2-23\JustArmDRS_Motion1_2-v60.trc
DataRate	CameraRate	NumFrames	NumMarkers	Units	OrigDataRate	OrigDataStartFrame	OrigNumFrames
100.00	100.00	      17	9	mm	100.00	852	      6808
Frame#	Time	front left toe			Front right toe			aft left toe			aft right toe			Arm			FL body			FR body			AL Body			AR Body			
		X1	Y1	Z1	X2	Y2	Z2	X3	Y3	Z3	X4	Y4	Z4	X5	Y5	Z5	X6	Y6	Z6	X7	Y7	Z7	X8	Y8	Z8	X9	Y9	Z9	

852	8.510	-202.14874	11.57607	-172.01299	205.36969	9.95261	-216.29028	-136.10367	30.86148	433.10776	266.70667	35.43876	421.50757	-6.98646	1206.20154	-240.16235	-96.53250	573.04327	-324.89566	63.00451	575.22504	-340.43851	-3.69428	595.39911	615.89264	152.25841	591.22827	601.61780	
853	8.520	-201.27794	11.63429	-172.19279	206.24182	9.88896	-216.54172	-135.19011	30.85534	433.19919	267.33298	35.49106	421.56873	-5.96759	1206.19177	-240.57225	-95.31403	572.84741	-324.83026	64.41546	575.23132	-341.03534	-2.65412	595.51294	615.79944	153.59253	591.90015	601.70459	
854	8.530	-200.53195	11.62038	-172.29616	207.19237	9.73773	-216.54213	-134.52040	31.02619	433.03638	268.15250	35.59505	421.42825	-4.78065	1206.08630	-240.86459	-94.13638	572.66205	-325.04880	65.10420	575.05328	-340.96948	-1.67619	595.53741	615.46741	154.67700	591.91107	601.78320	
855	8.540	-199.39545	11.33197	-172.48331	208.17747	9.67453	-216.69958	-133.19014	31.13916	433.06064	269.36722	35.84472	421.47687	-3.74431	1206.08484	-241.08696	-93.23866	572.73364	-325.26913	66.42201	574.96448	-340.82535	-0.59721	595.70801	615.63214	155.27870	591.79089	601.09210	
856	8.550	-198.34904	11.47153	-172.41156	209.20132	9.65891	-216.54897	-132.51952	31.37390	433.06094	270.30978	36.00072	421.41513	-2.66951	1206.12622	-241.67360	-92.05796	572.51227	-325.45001	67.80493	575.04767	-341.30188	0.60751	595.97241	616.10425	156.45959	592.24261	601.27338	
857	8.560	-197.71846	11.61967	-172.37659	210.38863	9.72344	-216.47533	-131.44713	31.29947	433.08228	271.19650	35.94574	421.43741	-1.76718	1205.91431	-241.89063	-90.61147	572.21912	-325.28528	68.99177	574.80121	-341.55652	1.52387	596.05560	615.89191	157.36378	592.66486	601.33289	
858	8.570	-196.15158	11.25020	-172.43832	211.00487	9.58588	-216.77882	-130.21306	31.25438	433.03940	272.32968	36.07907	421.58112	-0.61356	1205.81226	-242.00072	-89.77737	572.40015	-325.54095	69.44161	574.78577	-341.32431	2.47893	596.21942	615.09882	158.61905	592.81427	600.90088	
859	8.580	-195.48424	11.32119	-172.45467	212.37000	9.42848	-216.83789	-129.47676	31.66374	432.90045	273.16922	36.06847	421.42514	0.70216	1205.73901	-242.43173	-88.71964	572.39050	-325.70197	70.97096	574.66589	-341.70721	3.44092	596.46899	615.13574	159.50661	592.95282	600.83063	
860	8.590	-194.86304	11.42382	-172.54794	212.96269	9.29885	-216.75891	-128.70540	31.91381	432.84790	274.65897	36.35488	421.38205	1.79420	1205.68958	-242.77544	-87.71260	572.26746	-325.74704	72.06416	574.66827	-341.91068	4.46589	596.56506	615.08539	160.65120	593.06714	600.78186	
861	8.600	-193.38609	11.11765	-172.65096	214.14964	9.21249	-216.74023	-126.46595	30.92729	432.87817	275.26666	36.41557	421.34268	2.68424	1205.56738	-242.95149	-86.81080	572.26556	-325.93967	72.84874	574.36096	-341.63745	5.17794	596.61963	614.92639	161.33763	593.13776	600.68500	
862	8.610	-192.45683	11.25857	-172.74625	215.19759	9.36524	-216.64778	-125.72582	31.27493	432.73297	275.79269	36.31343	421.21872	4.00008	1205.62097	-243.21733	-85.74073	571.95758	-326.23206	74.21410	574.22919	-341.99515	6.32266	596.75610	614.57776	162.40054	593.14526	600.57764	
863	8.620	-191.76741	11.24861	-172.77577	216.00838	9.27202	-216.82129	-124.75839	31.30828	432.95715	277.23187	36.53511	421.18509	4.83259	1205.54980	-243.56195	-84.37056	571.89233	-326.18097	75.89761	574.08942	-342.07526	6.80813	596.97314	614.41724	163.29303	593.03809	600.50299	
864	8.630	-190.45840	10.95126	-172.76358	216.88190	9.04788	-216.92622	-123.61169	31.15990	432.88950	277.60214	36.67135	421.00516	6.16944	1205.27954	-243.66937	-83.27934	571.79767	-326.33899	76.16391	574.02185	-341.71060	8.37129	597.18665	614.52252	164.03687	593.11572	600.49286	
865	8.640	-189.76546	11.13103	-172.76698	218.12297	9.06197	-216.81786	-123.04330	31.51793	432.90704	278.87408	36.49067	420.98828	7.36017	1205.28247	-243.74402	-82.29244	571.84161	-326.37216	77.83412	573.95294	-342.19189	9.04662	597.20758	614.42517	165.17024	593.26978	600.47760	
866	8.650	-188.82289	11.33150	-172.91423	219.03317	9.03490	-216.90910	-121.74705	31.40804	432.97986	280.15204	36.63622	420.99948	8.65972	1205.18042	-244.08279	-81.11238	571.69025	-326.53732	78.96530	573.96838	-342.39615	9.96636	597.17285	614.37177	166.35359	593.53424	600.34863	
867	8.660	-187.61276	11.26265	-172.82729	219.96597	8.93852	-216.85457	-121.09787	31.68207	432.68817	280.55630	36.46457	420.82175	10.21863	1205.29016	-243.70784	-79.90175	571.52557	-326.66885	79.27271	573.86426	-342.14783	11.27929	597.19037	614.01007	167.51656	593.75696	600.28864	
868	8.670	-186.76616	10.98931	-172.81598	220.89745	9.10427	-216.92798	-120.27184	31.90936	432.60239	282.09918	36.82502	420.90479	11.63508	1205.15015	-243.40086	-78.74115	571.33337	-326.68835	80.84978	573.45618	-342.10229	12.10664	597.48755	614.22314	168.23834	593.54010	600.29321	
